<svg width="131" height="24" viewBox="0 0 131 24" xmlns="http://www.w3.org/2000/svg">
  <g fill="white">
    <path d="M9.76833 6.13068C10.5528 9.20428 11.0266 10.9718 12.1046 13.6378C12.4071 13.257 13.2184 12.1764 13.2184 12.1764C14.0281 10.2819 15.3597 4.89698 20.054 5.51755C21.4406 5.70078 22.2788 6.68946 23.3439 8.07533C21.6925 3.36852 17.2626 0 11.9661 0C9.48258 0 7.19539 0.736059 5.2855 2.00429C7.25327 2.25592 9.05536 3.33647 9.76833 6.13068Z"/>
    <path d="M23.8522 10.1042C23.4462 8.25393 19.4243 2.56604 13.2184 12.1764C13.164 12.2609 12.535 14.1926 12.4632 14.3742C12.4632 14.3742 13.5515 17.1524 15.7365 18.1161C17.7413 19.0002 19.4251 18.4565 21.0154 16.7666C22.2375 15.4678 23.2557 13.4931 24 11.8001C23.9952 11.3282 23.9541 10.7512 23.8522 10.1042Z"/>
    <path d="M4.49378 6.04311C2.96285 5.86153 1.71087 6.1277 1.1863 6.62964C0.117746 10.1781 3.79822 21.4934 8.32931 17.5593C9.54431 16.5044 10.4029 15.7168 11.42 14.569C10.7027 12.9409 9.94101 11.1248 9.50467 10.3344C8.53762 8.58288 7.20122 6.36413 4.49378 6.04311Z"/>
    <path d="M21.3524 17.3406C16.8535 22.6235 13.2785 18.26 11.9524 15.7166C11.1313 17.7867 10.2192 21.2036 7.1349 22.2528C6.72427 22.3925 6.28627 22.4175 5.85075 22.3494C7.64322 23.4004 9.74135 24.0038 11.9718 24C18.3985 23.9891 23.6791 18.9383 23.9816 12.5849C23.9843 12.528 22.6018 15.8734 21.3524 17.3406Z"/>
    <path d="M35.5732 8.49859C34.6728 7.63417 33.8036 7.3828 33.0893 7.3828C32.1113 7.3828 31.4129 7.90135 31.4129 8.65563C31.4129 10.7142 35.9923 10.6829 35.9923 14.0928C35.9923 15.7742 34.7349 17 33.0272 17C31.8784 17 30.9471 16.6857 30.0623 16.0101V14.0616C30.8385 15.0672 31.8163 15.6172 32.8565 15.6172C34.0363 15.6172 34.5796 14.8629 34.5796 14.2658C34.5796 12.0501 30 11.7985 30 8.85993C30 7.11562 31.273 6 33.2136 6C34.0208 6 34.8281 6.25137 35.5732 6.75428V8.49859Z"/>
    <path d="M47.3092 16.8586H45.7877V8.51423H45.7568L42.4967 12.663H42.2484L38.9883 8.51423H38.9572V16.8586H37.4359V6.14141H38.8641L42.3725 10.5413L45.8965 6.14141H47.3092V16.8586Z"/>
    <path d="M51.8265 12.3173H55.1176L53.4099 8.43571L51.8265 12.3173ZM58.7036 16.8586H57.1512L55.7385 13.7001H51.2367L49.9015 16.8586H48.3491L52.8977 6.07853H53.9687L58.7036 16.8586Z"/>
    <path d="M61.4202 10.8243H62.3982C64.0284 10.8243 64.4939 9.97572 64.4785 9.08003C64.4629 8.07421 63.8731 7.46149 62.3982 7.46149H61.4202V10.8243ZM62.569 6.14141C64.7114 6.14141 66.0463 7.28864 66.0463 9.14275C66.0463 10.3843 65.4098 11.3114 64.2767 11.7671C65.2391 12.4114 65.8291 13.4014 66.6363 14.7372C67.0866 15.4756 67.3502 15.8371 68.0801 16.8586H66.2636L64.8665 14.6586C63.4694 12.4587 62.8331 12.2071 62.0567 12.2071H61.4202V16.8586H59.8991V6.14141H62.569Z"/>
    <path d="M75.7978 7.52421H72.1341V16.8586H70.6127V7.52421H66.949V6.14141H75.7978V7.52421Z"/>
    <path d="M82.2555 8.49859C81.355 7.63417 80.4858 7.3828 79.7716 7.3828C78.7936 7.3828 78.0951 7.90135 78.0951 8.65563C78.0951 10.7142 82.6746 10.6829 82.6746 14.0928C82.6746 15.7742 81.4173 17 79.7095 17C78.5609 17 77.6292 16.6857 76.7444 16.0101V14.0616C77.5208 15.0672 78.4988 15.6172 79.5387 15.6172C80.7185 15.6172 81.262 14.8629 81.262 14.2658C81.262 12.0501 76.6825 11.7985 76.6825 8.85993C76.6825 7.11562 77.9555 6 79.8957 6C80.7031 6 81.5103 6.25137 82.2555 6.75428V8.49859Z"/>
    <path d="M92.2838 7.52421H88.6202V16.8586H87.0987V7.52421H83.4353V6.14141H92.2838V7.52421Z"/>
    <path d="M95.0935 10.8243H96.0715C97.7015 10.8243 98.1673 9.97572 98.1518 9.08003C98.1362 8.07421 97.5462 7.46149 96.0715 7.46149H95.0935V10.8243ZM96.2423 6.14141C98.3845 6.14141 99.7197 7.28864 99.7197 9.14275C99.7197 10.3843 99.0831 11.3114 97.9498 11.7671C98.9124 12.4114 99.5024 13.4014 100.309 14.7372C100.76 15.4756 101.024 15.8371 101.753 16.8586H99.9369L98.5398 14.6586C97.1427 12.4587 96.5062 12.2071 95.73 12.2071H95.0935V16.8586H93.5722V6.14141H96.2423Z"/>
    <path d="M108.739 7.52421H104.253V10.7614H108.584V12.1442H104.253V15.4756H108.879V16.8586H102.731V6.14141H108.739V7.52421Z"/>
    <path d="M113.117 12.3173H116.408L114.7 8.43571L113.117 12.3173ZM119.994 16.8586H118.441L117.029 13.7001H112.527L111.192 16.8586H109.639L114.188 6.07853H115.259L119.994 16.8586Z"/>
    <path d="M131 16.8586H129.479V8.51423H129.448L126.188 12.663H125.939L122.679 8.51423H122.648V16.8586H121.127V6.14141H122.555L126.064 10.5413L129.587 6.14141H131V16.8586Z"/>
  </g>
</svg>
